<?xml version="1.0" encoding="UTF-8" standalone="no"?>
<!-- Created with Inkscape (http://www.inkscape.org/) -->

<svg
   xmlns:dc="http://purl.org/dc/elements/1.1/"
   xmlns:cc="http://creativecommons.org/ns#"
   xmlns:rdf="http://www.w3.org/1999/02/22-rdf-syntax-ns#"
   xmlns:svg="http://www.w3.org/2000/svg"
   xmlns="http://www.w3.org/2000/svg"
   xmlns:sodipodi="http://sodipodi.sourceforge.net/DTD/sodipodi-0.dtd"
   xmlns:inkscape="http://www.inkscape.org/namespaces/inkscape"
   width="207.41841mm"
   height="175.58617mm"
   viewBox="0 0 207.41841 175.58617"
   version="1.1"
   id="svg1109"
   inkscape:version="0.92.3 (2405546, 2018-03-11)"
   sodipodi:docname="Snif Snif.svg">
  <title
     id="title1152">Snif Snif</title>
  <defs
     id="defs1103" />
  <sodipodi:namedview
     id="base"
     pagecolor="#ffffff"
     bordercolor="#666666"
     borderopacity="1.0"
     inkscape:pageopacity="0.0"
     inkscape:pageshadow="2"
     inkscape:zoom="0.7"
     inkscape:cx="985.08954"
     inkscape:cy="261.58656"
     inkscape:document-units="mm"
     inkscape:current-layer="layer1"
     showgrid="false"
     fit-margin-top="0"
     fit-margin-left="0"
     fit-margin-right="0"
     fit-margin-bottom="0"
     inkscape:window-width="1920"
     inkscape:window-height="1025"
     inkscape:window-x="0"
     inkscape:window-y="27"
     inkscape:window-maximized="1" />
  <metadata
     id="metadata1106">
    <rdf:RDF>
      <cc:Work
         rdf:about="">
        <dc:format>image/svg+xml</dc:format>
        <dc:type
           rdf:resource="http://purl.org/dc/dcmitype/StillImage" />
        <dc:title>Snif Snif</dc:title>
        <dc:creator>
          <cc:Agent>
            <dc:title>Doodleguy</dc:title>
          </cc:Agent>
        </dc:creator>
        <dc:rights>
          <cc:Agent>
            <dc:title>public domain</dc:title>
          </cc:Agent>
        </dc:rights>
        <dc:source>www.fresvg.org</dc:source>
        <dc:date>2023</dc:date>
        <cc:license
           rdf:resource="http://creativecommons.org/publicdomain/zero/1.0/" />
      </cc:Work>
      <cc:License
         rdf:about="http://creativecommons.org/publicdomain/zero/1.0/">
        <cc:permits
           rdf:resource="http://creativecommons.org/ns#Reproduction" />
        <cc:permits
           rdf:resource="http://creativecommons.org/ns#Distribution" />
        <cc:permits
           rdf:resource="http://creativecommons.org/ns#DerivativeWorks" />
      </cc:License>
    </rdf:RDF>
  </metadata>
  <g
     inkscape:groupmode="layer"
     id="layer3"
     inkscape:label="b"
     transform="translate(-1.2154393,-19.490926)" />
  <g
     inkscape:label="Layer 1"
     inkscape:groupmode="layer"
     id="layer1"
     transform="translate(-1.2154393,-19.490926)">
    <g
       id="g1150">
      <path
         transform="scale(0.26458333)"
         inkscape:connector-curvature="0"
         id="path1125"
         d="m 348.92199,80.043166 c -8.2739,0.719926 -14.45976,7.458587 -19.75446,13.231027 -2.7983,2.90502 0.81138,5.692882 2.42466,7.981307 7.83204,17.45699 10.54056,37.04796 20.42359,53.67615 9.78786,17.29518 20.99958,33.86162 34.26302,48.67705 5.12249,8.2997 13.50946,13.45045 21.68476,18.2983 2.46354,1.27195 5.08369,4.87938 2.11217,7.13449 -1.54855,2.0919 -5.00648,3.57513 -6.11189,0.15625 -2.78112,-3.49752 -7.0839,0.89805 -9.60751,2.49131 -4.1905,3.27153 -8.88339,7.19475 -14.61771,5.97375 -7.51326,0.13641 -16.82261,-3.42629 -22.75556,3.00795 -10.74997,9.52097 -25.39907,12.44188 -39.26152,13.77813 -4.88334,0.14037 -5.76859,6.1145 -8.22938,9.25177 -3.75502,7.36706 -8.30781,14.56807 -10.6483,22.51579 0.7414,4.27031 6.26029,2.46668 8.3817,0.35993 3.28005,-4.15506 11.52872,-3.5619 12.44978,2.0745 -5.00778,2.75403 -12.18156,-0.35846 -16.30023,4.59821 -1.8949,3.04992 -5.09334,4.49446 -8.49469,5.07952 -3.6782,2.75278 -3.00102,8.39661 -5.86496,11.83873 -1.0116,1.72298 -4.86749,4.82667 -2.17075,6.61272 6.37925,1.02719 13.38626,-0.9265 19.45312,1.52344 1.5211,0.62389 2.3428,2.83841 0.12416,2.79994 -9.08366,0.9216 -20.48456,0.17768 -26.26813,8.78069 -2.5701,4.1482 -5.0093,9.00975 -5.41574,13.83092 4.40229,1.73954 11.01769,0.69874 13.70117,5.31529 -0.0406,2.51837 -4.14317,1.72705 -5.84403,2.34236 -7.88758,0.18436 -13.33688,6.52403 -17.262,12.65123 -3.62223,6.55448 -8.12518,12.58978 -11.92466,19.00195 -1.2209,3.40318 3.82231,3.12118 5.83566,3.09849 4.32252,0.41999 10.90598,1.38292 12.0745,6.36579 -0.27391,2.64132 -3.70505,2.80325 -5.13533,1.00586 -7.94288,-3.56076 -18.21786,0.35514 -21.40935,8.58141 -2.4641,5.19871 -8.3763,8.94517 -8.87106,14.93561 1.63374,4.02308 7.18263,1.87353 10.43945,3.29102 1.64821,0.72803 5.41221,1.33311 4.99163,3.56864 -5.37322,0.76239 -11.16323,0.46266 -16.21094,3.02873 -8.1905,3.82559 -15.46203,10.08335 -20.3111,17.70229 -1.73796,3.62414 3.69962,4.19994 6.03795,3.38449 3.61723,-1.49189 7.05573,-4.38518 11.24023,-2.99247 2.95653,0.54551 7.0451,3.55435 5.96819,6.79129 -3.35899,0.57337 -6.7694,-1.71952 -10.27065,-0.99748 -11.62973,0.53133 -23.14698,6.81294 -28.49304,17.41578 -1.80339,3.71116 -5.46425,7.33565 -5.2737,11.64393 2.78247,1.68217 6.50717,-0.96395 9.46289,-1.08817 2.68042,-0.83658 6.4327,0.47802 7.68136,2.82505 -5.34673,3.06474 -12.16131,2.58902 -17.77472,5.34709 -2.8909,1.34126 -8.38286,3.42543 -7.18064,7.4696 2.62053,2.96668 7.63967,3.15483 9.92885,6.15653 -6.25369,2.3888 -13.94917,0.799 -19.61299,5.24409 -2.28118,2.06115 -8.03619,2.20205 -7.774,6.20261 1.86404,4.22762 7.76479,3.94417 11.41183,5.72964 1.42744,0.80529 5.08549,1.3405 4.76562,3.37751 -6.80842,0.96899 -15.21164,-2.59274 -20.66406,3.2952 -0.75989,1.02746 -4.58143,2.98798 -2.68973,4.30943 3.14459,-0.26506 6.67172,-0.74937 9.05413,1.94197 1.87049,0.87677 4.53362,5.51655 1.23605,5.9082 -6.10594,-5.33495 -14.93965,-1.61008 -20.30274,2.95061 -2.21783,2.36106 -6.47996,4.50859 -6.33928,8.16267 1.95392,3.38914 7.03797,1.15569 10.13951,1.45647 5.78873,-0.62565 9.74739,4.91739 12.56417,9.13784 0.4739,2.22182 -2.49429,-0.47613 -3.21405,-0.50377 -6.1305,-3.41114 -13.72868,-3.16887 -20.42155,-1.88742 -4.52995,1.31296 -5.19481,6.91536 -9.17132,9.11272 -3.57511,3.22338 -3.30036,8.7222 -6.97684,11.98522 -5.40143,7.07816 -10.43095,15.47335 -9.2009,24.75846 -0.23872,6.4714 1.1937,13.20607 0.0226,19.55795 -3.28328,0.97347 -3.60431,-3.61423 -3.4375,-5.79939 0.94759,-5.92696 -2.26958,-11.21477 -6.55553,-14.99721 -14.262748,-14.75155 -33.944664,-27.2632 -55.287385,-24.8842 -21.44396,2.43747 -41.699622,19.78806 -43.515254,41.96407 -0.7456722,8.57956 -1.5434704,19.09493 5.953869,25.14111 8.433331,5.51874 19.21365,3.08843 28.501675,1.58204 11.781913,-2.3606 21.997107,-9.42576 33.805803,-11.78712 5.358151,-1.1868 8.034308,-6.82038 13.005022,-8.59793 3.969458,-2.90082 4.098565,-9.31606 8.69559,-11.35045 3.64736,0.3189 2.50363,5.48244 3.10128,7.98131 1.70095,7.79069 11.11802,9.35799 17.58686,11.15071 9.7174,1.77113 19.64979,5.00999 29.59646,3.61073 8.36101,-3.57542 16.86657,2.47023 25.46596,0.75335 6.88502,-0.35707 10.52629,-7.3352 16.1356,-10.12277 5.14903,1.0022 8.42967,6.18599 12.6995,8.92515 5.97424,5.44936 13.01754,9.74039 21.0798,11.15297 9.61954,2.64488 19.0332,7.26195 29.29687,6.0798 5.97874,-0.0959 13.21111,-1.27005 16.89732,-6.46205 2.82607,-7.16972 -2.57489,-14.38731 -6.63085,-19.92467 -7.23636,-8.9059 -18.43645,-13.96785 -29.49498,-16.14676 -11.6439,-1.02579 -24.45449,0.41361 -33.56027,8.44726 -1.35655,0.87089 -5.00878,3.3369 -5.76033,0.7673 2.74758,-6.50407 9.29393,-10.66728 15.42272,-13.70535 2.58809,-1.09659 1.23478,-4.12251 -1.17048,-4.22573 -6.58203,-2.85725 -11.15227,-9.35212 -13.93136,-15.75753 -1.35164,-6.37797 2.39479,-12.61605 4.07566,-18.64584 3.4021,-8.41944 7.71574,-16.45653 10.54868,-25.10908 4.35239,-10.22518 10.38237,-19.65512 16.2754,-29.03162 19.65821,-26.12975 37.19935,-53.79503 53.98307,-81.834 3.35859,-4.48604 6.62575,-9.17658 7.64509,-14.78375 3.57627,-7.73313 9.56437,-14.2664 11.85826,-22.62975 4.04014,-10.27823 9.19586,-20.13159 15.48967,-29.1755 3.24813,-9.73066 9.35482,-18.41322 14.0087,-27.56563 8.09086,-12.79951 7.84275,-28.47855 11.41681,-42.68549 1.65623,-4.053 8.11624,-1.91572 7.22516,2.27121 0.53595,10.47529 -6.5251,21.16738 -1.71456,31.35881 1.52047,4.97142 7.23859,10.07038 12.52651,6.98242 5.66671,-2.93261 11.07385,-7.55355 13.70535,-13.4361 0.93474,-4.13475 -3.4716,-8.87299 -0.31668,-12.39258 4.12102,-2.97802 9.81858,3.20694 8.37053,7.49163 0.9121,5.2082 7.78858,5.18349 11.59393,7.1474 14.03675,4.71301 28.13639,9.30237 41.57115,15.57551 5.92647,2.21942 11.88802,4.6176 16.5852,8.95259 2.29977,1.0555 5.10342,-0.4622 7.28097,1.37556 12.89,7.00117 23.2963,17.81941 33.10773,28.54127 8.86093,10.51675 17.05208,22.84731 18.66265,36.78937 -0.13223,14.07575 -0.76988,28.53531 -5.43388,41.9294 -1.03235,3.58631 -4.69205,-0.17936 -4.62332,-2.40234 -0.64229,-12.14126 4.85594,-23.91684 3.81138,-36.10072 -1.13873,-1.6614 -3.65836,0.98126 -4.99303,1.33231 -7.55963,5.07733 -16.05164,10.20018 -20.41155,18.50585 -3.10191,9.29849 -2.17794,19.59468 -0.17803,29.04634 1.22013,5.52168 4.12528,10.63741 8.77318,13.93218 5.08702,7.26045 6.87175,16.33263 9.28463,24.73322 4.17914,22.12842 5.26582,46.31301 -5.18307,66.96739 -4.33864,9.98213 -12.59059,17.88625 -21.72991,23.52121 -4.99719,3.10079 -11.07224,2.20026 -16.04493,-0.38086 -3.22983,-1.39372 -4.12722,3.35505 -1.87917,4.8884 8.11263,5.82025 17.19795,10.3831 24.01506,17.8976 3.20373,3.58362 8.4095,7.84138 7.17216,13.18638 -1.37458,2.85582 -4.35424,-0.51272 -4.9149,-2.19587 -5.41608,-13.3297 -19.5119,-19.44165 -31.7355,-25.02651 -6.6157,-2.53548 -13.05588,-6.24301 -19.92327,-7.68555 -21.00469,0.45017 -42.35478,-1.28555 -63.07617,2.93527 -17.83448,5.07321 -36.13111,9.1317 -52.75949,17.66323 -9.4777,4.94803 -19.56359,9.72017 -27.0745,17.49023 -2.65333,4.31244 -2.46936,11.03719 2.2461,13.91742 4.38686,3.51337 9.20078,-1.91184 12.76201,-4.13213 3.56761,-2.14807 6.75656,-6.0671 10.99775,-6.61425 -2.70312,5.10853 -10.65176,8.24549 -10.42271,14.98745 1.50256,5.83698 8.53021,7.53768 13.16128,10.1953 2.63555,1.43228 7.1975,3.13711 8.76534,-0.64173 1.93507,-3.70309 4.75213,-6.83738 7.59906,-9.85631 2.4169,2.28678 5.71949,4.42142 2.43582,7.51395 -2.6967,4.55484 -2.80941,12.13677 3.07756,14.1476 6.67462,2.33162 13.84788,3.27226 20.08511,6.86803 9.57892,3.96758 20.18903,4.85047 30.44643,5.04604 5.90553,-2.1582 11.6865,-4.86203 18.02604,-5.68828 13.30332,-3.5527 25.7117,-9.79277 38.42483,-14.97902 15.49054,-7.6766 31.18331,-15.21012 48.10828,-19.1081 11.22126,-2.42795 24.00781,-5.02047 31.42159,-14.65123 6.7486,-11.62067 6.73659,-25.6491 8.04034,-38.66198 0.96555,-22.64697 0.89666,-45.37669 -0.36037,-68.00933 0.42149,-4.09595 -5.21132,-6.49686 -3.37472,-10.55804 1.60707,-2.50485 4.87437,-5.18325 7.90318,-4.7712 2.54411,4.25234 1.53916,9.85425 2.20066,14.63118 0.72173,32.0756 1.29204,64.38475 -4.00786,96.14678 -1.18966,11.54992 -4.27654,23.2161 -2.90541,34.8568 2.78808,7.61642 11.83947,9.85926 18.42426,13.04454 11.79267,4.96668 22.14556,12.68834 33.4719,18.59655 15.80364,9.74305 30.89924,20.66897 47.54301,29.01182 16.10511,8.81243 33.89055,15.64746 52.53044,15.16354 7.55171,-0.28972 15.72962,0.64762 22.78206,-2.49893 5.5963,-5.42261 8.399,-13.27773 10,-20.77008 1.04014,-6.3489 -5.40383,-12.02291 -2.8125,-18.30497 3.6545,-0.5993 6.194,3.95837 7.4163,6.88755 2.05533,9.09836 -0.34955,18.73486 1.61412,27.80274 2.60432,1.23576 5.46201,-1.81042 7.80416,-2.73159 7.64142,-4.9527 17.48164,-10.12657 18.68578,-20.21903 0.94222,-7.64866 2.74479,-16.91827 -3.62864,-22.84179 -3.85229,-5.08093 -9.77743,-8.97208 -12.21257,-14.9721 -0.14365,-3.1843 3.92478,-3.64297 5.80078,-1.72154 6.85257,5.67558 12.04793,13.34344 16.02536,21.24023 0.53771,2.5122 2.8305,7.31754 6.01421,5.61385 5.90386,-8.12281 9.09615,-18.03646 11.56179,-27.69566 1.47579,-9.39801 2.072,-20.31733 -4.94279,-27.80828 -3.07978,-2.95631 -3.81978,-7.73491 -8.09778,-9.40399 -9.20764,-5.50873 -19.78486,-8.27191 -30.49793,-8.21833 -27.44772,-1.70458 -54.54825,4.12496 -81.57139,7.96241 -13.42899,2.6297 -27.4467,3.5867 -40.20884,8.80643 -5.23906,2.08725 -9.40291,7.0352 -15.02233,7.90736 1.18231,-4.45638 5.07182,-8.11268 8.44169,-11.21512 9.01088,-6.85542 21.34921,-4.97978 31.38951,-9.03739 -0.1618,-1.96199 -3.8682,-1.1926 -5.23984,-1.8155 -12.65484,-0.99499 -26.82021,-4.0456 -34.42115,-15.259 -6.43936,-8.69026 -8.92722,-19.82597 -7.07311,-30.45061 2.54192,-18.1141 5.56593,-36.21331 9.70285,-54.0346 1.99261,-7.67801 6.91127,-14.62942 14.33812,-17.76985 7.20843,-3.30485 14.32728,-7.07671 19.5395,-13.24122 15.37475,-15.46844 27.7546,-35.05217 31.4572,-56.80004 0.94235,-12.08288 1.4892,-24.75947 -3.6127,-36.0801 -2.2946,-7.35613 -6.11367,-14.11868 -11.79822,-19.39534 -3.83488,-4.63601 -8.73002,-7.98537 -13.7026,-11.20892 -5.97524,-5.96384 -13.82164,-9.90644 -22.25367,-10.9384 -7.6995,-2.02762 -14.96543,-6.16686 -23.20591,-5.5413 -9.94642,0.28803 -21.32309,0.54085 -29.21177,7.40793 -3.28765,4.12737 1.68838,8.79683 4.15936,11.84211 2.90651,3.71775 6.89501,6.28774 10.52674,9.12329 0.37814,2.33135 -1.78347,5.02662 -3.74163,6.06585 -5.24696,-2.9745 -7.52095,-9.05192 -10.22042,-14.10157 -2.57108,-3.30171 -6.58246,-5.42254 -7.87389,-9.61496 -9.77127,-14.97393 -17.5289,-31.14577 -27.47915,-46.01024 -2.01885,-4.74872 -5.29601,-8.66041 -8.92015,-12.31799 -9.79627,-11.17122 -18.83823,-23.05796 -26.55689,-35.74822 -9.70147,-11.30054 -15.16476,-25.38232 -23.37484,-37.69999 -3.39906,-6.67389 -7.37412,-12.96914 -11.43553,-19.2385 -12.81952,-23.61352 -24.83636,-47.81536 -33.77828,-73.17227 -1.35647,-7.56015 -5.93959,-13.79079 -10.62595,-19.62138 -5.70398,-9.68555 -12.55349,-19.20562 -21.79268,-25.806359 -9.8218,-6.578737 -21.86674,-8.52349 -33.48494,-8.293805 z M 146.22388,577.16231 c 3.49767,0.3034 7.85313,2.929 8.12083,6.71596 -0.12814,1.18674 -0.95949,3.87355 -2.46513,2.20563 -2.88457,-2.92481 -7.44405,-5.4776 -11.27232,-2.5558 -4.33081,2.09658 -7.51201,6.96889 -12.1889,7.87946 1.77911,-4.65065 6.39387,-7.95151 10.1702,-11.09235 2.26555,-1.58051 4.78485,-3.18061 7.63532,-3.1529 z"
         style="opacity:1;vector-effect:none;fill:#217867;fill-opacity:1;stroke:none;stroke-width:8.93858242;stroke-linecap:round;stroke-linejoin:round;stroke-miterlimit:4;stroke-dasharray:none;stroke-dashoffset:0;stroke-opacity:1" />
      <path
         transform="scale(0.26458333)"
         inkscape:connector-curvature="0"
         id="path1127"
         d="m 733.82792,200.32942 c -4.5393,-0.0269 -9.15564,0.35449 -13.40284,2.07454 -6.9386,2.76628 -13.59314,6.2709 -19.83932,10.3655 -3.22347,2.0606 -6.0653,4.66821 -8.36846,7.72456 -7.64064,9.74233 -14.26143,20.24978 -20.40391,30.98705 -3.51589,5.928 -6.20983,12.2788 -8.80353,18.64903 -4.82844,11.76976 -10.21473,23.30632 -14.80171,35.17501 -3.72794,9.52292 -5.85536,19.57339 -7.32075,29.66782 -1.00906,7.26652 -2.26615,14.51955 -2.69526,21.85043 -0.19284,2.70942 0.37599,5.63119 2.40441,7.57832 1.34268,1.37119 2.9232,2.97556 4.95919,3.04897 1.41216,-0.20861 1.83091,-1.81128 1.76374,-3.03432 0.0253,-7.38683 -0.47914,-14.82588 0.81083,-22.13437 1.20378,-7.92348 2.98405,-15.85327 6.34947,-23.17394 1.55851,-3.77579 2.19121,-7.86196 2.33991,-11.91442 0.92821,-9.83766 5.26271,-18.9391 10.06273,-27.44032 8.85028,-15.14103 20.58671,-28.45626 33.72215,-40.00771 6.29671,-5.55303 13.42091,-10.03936 19.97933,-15.25665 1.37804,-1.10964 2.72553,-2.30151 3.65871,-3.81527 1.95337,-1.71913 4.68942,-2.05887 6.90535,-3.33984 3.46874,-1.54073 6.50466,-3.86776 9.81031,-5.67784 3.62266,-1.99105 7.521,-3.29908 11.44771,-4.54189 1.34249,-0.60058 3.31576,-1.03716 3.69001,-2.68659 -0.052,-1.53468 -1.8972,-1.99099 -3.09152,-2.40444 -5.51104,-1.40684 -11.25431,-1.52206 -16.9109,-1.68599 -0.75516,-0.0106 -1.51043,-0.0118 -2.26565,-0.008 z"
         style="opacity:1;vector-effect:none;fill:#217867;fill-opacity:1;stroke:none;stroke-width:8.93858242;stroke-linecap:round;stroke-linejoin:round;stroke-miterlimit:4;stroke-dasharray:none;stroke-dashoffset:0;stroke-opacity:1" />
      <path
         transform="scale(0.26458333)"
         inkscape:connector-curvature="0"
         id="path1129"
         d="m 492.45195,530.1885 c -1.03305,0.60927 -1.42129,1.94894 -2.07895,2.91087 -5.48778,9.95243 -9.48867,20.8191 -16.47031,29.88423 -2.39923,3.36675 -6.31554,5.38048 -8.34457,9.05478 -1.15397,1.99997 -1.04492,4.98729 1.0634,6.32708 1.68624,1.36708 3.97376,1.50562 5.76765,2.64091 0.83142,0.55571 -0.20429,1.44846 -0.53188,1.99219 -0.96086,1.13227 -2.12208,2.79007 -3.84102,2.28899 -2.98883,-0.97719 -5.31151,-3.26981 -7.7884,-5.11112 -5.23432,-4.17626 -10.33842,-8.55028 -15.57656,-12.69755 -9.18487,0.55604 -18.51125,-0.17223 -27.56659,1.77393 -4.38832,0.87079 -7.66664,4.55284 -12.07766,5.16316 -4.44096,1.63315 -8.42427,4.29295 -12.3555,6.88192 -1.75987,1.33778 -3.82839,2.479 -5.07126,4.35517 -0.62354,1.96978 1.54111,4.09877 3.52504,3.59689 1.57814,-0.41384 3.16652,-0.86202 4.8104,-0.89638 10.7078,-0.80871 21.47677,-0.14321 32.20013,0.18759 13.81118,0.5273 27.62678,1.33626 41.42069,1.99123 3.62763,-2.95993 6.91588,-6.33159 10.21275,-9.65437 2.57527,-2.85106 5.11877,-5.86547 6.69643,-9.39907 1.89398,-6.67359 3.65597,-13.39333 5.16567,-20.16462 1.12303,-6.37875 1.9853,-12.86784 1.68527,-19.35686 -0.11025,-0.57163 -0.0535,-1.69284 -0.84473,-1.76897 z"
         style="opacity:1;vector-effect:none;fill:#005544;fill-opacity:1;stroke:none;stroke-width:8.93858242;stroke-linecap:round;stroke-linejoin:round;stroke-miterlimit:4;stroke-dasharray:none;stroke-dashoffset:0;stroke-opacity:1" />
      <path
         transform="scale(0.26458333)"
         inkscape:connector-curvature="0"
         id="path1131"
         d="m 611.2542,507.07865 c -5.06616,-0.0863 -9.25457,3.64162 -11.27721,8.04269 -4.19789,8.59912 -5.91652,18.1453 -7.76297,27.46094 -2.29215,15.06166 -4.19265,30.27165 -4.06948,45.53083 0.0956,4.91871 2.15294,9.88201 5.55664,13.41866 6.18046,4.54684 13.70432,6.81843 20.93682,9.10808 5.07135,1.63433 10.37731,2.27833 15.60546,3.0571 3.20335,0.46448 5.15483,3.31415 7.69252,4.97977 5.01991,0.17918 9.81587,-1.93434 14.76642,-2.53729 19.93663,-3.33298 40.07094,-5.72786 60.25509,-6.81514 4.93485,-0.22815 10.08148,0.12246 14.85781,-0.75359 -0.32423,-10.56559 0.21257,-21.19157 -0.91587,-31.71473 -0.15542,-2.26351 -1.52909,-4.56249 -3.97392,-4.83591 -8.26149,-1.59365 -16.77227,-0.46963 -25.05227,0.44701 -8.73809,1.34012 -17.69889,2.69891 -25.77501,6.46356 -3.44067,1.75063 -6.16866,4.9425 -10.24833,5.26855 -3.47279,1.32193 -5.57066,4.73089 -8.80371,6.4788 -7.80344,4.95195 -16.74282,8.33971 -26.03097,8.78558 -5.42305,0.3531 -10.14077,3.68926 -15.40109,4.39173 -1.21937,0.29857 -3.52567,-1.10356 -2.41699,-2.39397 2.79835,-3.27726 7.65862,-4.24266 9.92536,-7.99456 1.65425,-3.8708 -0.11781,-8.14058 -0.7926,-12.04427 -2.61874,-10.12853 -5.62379,-20.21796 -6.28517,-30.7105 -0.54726,-8.22135 -0.9034,-16.5657 0.0786,-24.74383 0.79461,-5.56094 5.31447,-10.51936 3.89439,-16.34766 -0.54641,-2.14303 -2.80442,-2.75109 -4.76353,-2.54185 z"
         style="opacity:1;vector-effect:none;fill:#005544;fill-opacity:1;stroke:none;stroke-width:8.93858242;stroke-linecap:round;stroke-linejoin:round;stroke-miterlimit:4;stroke-dasharray:none;stroke-dashoffset:0;stroke-opacity:1" />
      <path
         transform="scale(0.26458333)"
         inkscape:connector-curvature="0"
         id="path1133"
         d="m 315.1984,111.82034 c -2.27935,0.23314 -3.93775,2.09396 -5.70173,3.3681 -8.14824,7.00229 -15.44312,14.9313 -22.60175,22.92337 -5.30858,6.1248 -10.69571,12.26009 -15.00497,19.14938 -0.91824,1.41213 -1.45603,3.00674 -1.77665,4.646 -0.8156,2.49276 -3.28663,3.97991 -4.2034,6.45647 -3.01246,6.466 -4.93,13.40352 -6.28872,20.38958 -0.26426,2.79059 -0.36377,5.64841 0.0806,8.42494 2.73728,12.06105 9.3946,23.10303 18.52878,31.40686 10.84922,10.139 25.27765,16.43582 40.12843,17.19351 6.17802,0.09 12.36389,-0.41309 18.40997,-1.71416 3.87013,-0.72429 7.69314,-1.89587 11.03004,-4.04 3.10042,-2.00017 6.68239,-4.00328 8.13604,-7.60032 1.8054,-4.5873 -0.0752,-9.60475 -2.39781,-13.63596 -3.45601,-6.15617 -8.80257,-10.86578 -13.40598,-16.10815 -4.46221,-5.02491 -8.06422,-10.80299 -10.38936,-17.1138 -2.53029,-6.37166 -5.86253,-12.41021 -8.39565,-18.76465 -3.18877,-9.6514 -4.72079,-19.76151 -5.74219,-29.84724 -0.27154,-5.30902 -0.45278,-10.67255 -0.0321,-15.97408 0.21068,-1.74171 0.82477,-3.46803 2.24614,-4.59582 1.14397,-0.77586 1.43643,-2.62007 0.37942,-3.57805 -0.79646,-0.7486 -1.93416,-1.0071 -2.99909,-0.98598 z m -37.00579,61.9458 c 2.51459,0.54029 4.4971,2.41453 6.41939,4.01379 2.57011,2.43932 5.21488,5.09945 6.57238,8.43215 0.4491,1.93128 0.68841,3.94181 1.64586,5.72127 1.73413,3.6802 4.75034,6.68269 5.94196,10.62619 0.59307,1.71785 0.18262,3.69796 1.30413,5.25341 0.88657,1.44417 2.5839,2.42057 2.61823,4.2899 0.33522,3.02234 0.16869,6.50194 -2.11565,8.78383 -1.89193,1.66443 -4.55222,2.24614 -7.01241,2.12507 -2.69993,-0.43701 -5.54792,-1.82388 -6.65067,-4.50875 -0.74323,-1.04929 -0.42125,-2.5337 -1.45864,-3.43977 -2.84574,-2.90122 -7.01207,-3.88118 -10.08229,-6.49899 -1.99741,-1.4552 -3.4851,-3.46361 -4.5515,-5.67352 -1.27252,-2.44291 -3.13391,-4.51688 -4.44685,-6.92661 -0.76012,-1.97999 -0.47132,-4.17116 -0.3955,-6.25663 0.84705,-3.99541 3.21106,-7.51838 5.67173,-10.70452 1.73934,-1.99614 3.52489,-4.29335 6.11293,-5.18625 0.13997,-0.0318 0.28317,-0.0512 0.4269,-0.0506 z"
         style="opacity:1;vector-effect:none;fill:#ffffff;fill-opacity:1;stroke:none;stroke-width:8.93858242;stroke-linecap:round;stroke-linejoin:round;stroke-miterlimit:4;stroke-dasharray:none;stroke-dashoffset:0;stroke-opacity:1" />
      <path
         transform="scale(0.26458333)"
         inkscape:connector-curvature="0"
         id="path1135"
         d="m 327.54006,105.99515 c -1.41876,0.19546 -1.85089,1.92296 -2.36657,3.02286 -2.17511,6.39694 -2.93515,13.17467 -3.55419,19.8716 -0.54707,6.54259 -0.54184,13.18855 0.92966,19.62022 1.10229,4.86481 2.295,9.87412 4.99665,14.13362 1.64128,2.63671 4.73999,3.71746 7.63152,4.26653 5.98114,1.48415 11.41221,4.92445 15.63337,9.38441 1.01851,1.19017 2.03543,2.52371 2.22412,4.11935 1.75429,3.82201 4.511,7.07773 7.01013,10.42757 2.73781,3.63101 5.94997,6.97825 8.04114,11.04844 0.7472,1.3113 0.32815,2.93499 -0.758,3.91402 -1.20296,1.26241 -2.70765,3.10208 -4.69959,2.48456 -2.79887,-0.73307 -5.46554,-2.98813 -8.49819,-2.09682 -1.64869,0.63707 -1.32889,2.80964 -0.74079,4.10051 2.09972,4.33125 6.61947,6.88949 8.79394,11.17153 0.41008,1.15053 0.58689,2.44175 1.60854,3.26276 3.15058,3.08079 7.31787,4.97731 11.53425,6.10526 4.01723,0.82387 8.20949,0.11505 12.09814,-1.01096 2.41553,-0.86382 5.23782,-2.09435 6.16428,-4.6953 0.42271,-1.88152 -0.90391,-3.59185 -1.68004,-5.19636 -4.8587,-8.10142 -10.94354,-15.38695 -17.09193,-22.5293 -8.0678,-9.0935 -14.84,-19.25109 -21.10456,-29.65434 -4.19852,-7.14166 -7.9344,-14.55162 -12.34165,-21.57015 -2.91064,-6.29176 -4.90734,-12.95837 -6.86665,-19.59235 -1.12308,-3.88379 -2.09838,-7.80133 -2.25167,-11.85231 -0.38128,-2.78817 -0.6906,-6.03617 -2.93073,-8.01828 -0.51147,-0.38013 -1.12994,-0.7115 -1.78118,-0.71707 z"
         style="opacity:1;vector-effect:none;fill:#ffffff;fill-opacity:1;stroke:none;stroke-width:8.93858242;stroke-linecap:round;stroke-linejoin:round;stroke-miterlimit:4;stroke-dasharray:none;stroke-dashoffset:0;stroke-opacity:1" />
      <path
         inkscape:connector-curvature="0"
         id="path1122"
         d="m 174.37278,194.42857 c -1.42752,-0.3494 -3.25545,-0.99784 -4.06207,-1.44096 -0.80664,-0.44314 -2.5024,-1.2397 -3.76838,-1.77012 -1.26595,-0.53043 -3.95155,-2.14166 -5.96801,-3.58048 -2.01645,-1.43883 -3.98915,-2.61606 -4.38376,-2.61606 -0.39463,0 -0.79366,-0.17138 -0.88675,-0.38084 -0.23284,-0.52389 -3.2032,-2.5765 -4.60483,-3.18207 -1.15322,-0.49823 -2.01589,-1.00466 -4.52644,-2.65716 -0.74247,-0.48873 -1.88591,-0.89366 -2.54098,-0.89988 -0.65507,-0.005 -1.76225,-0.4581 -2.46042,-1.00422 -0.69817,-0.54613 -1.51961,-0.99803 -1.82541,-1.00423 -1.3226,-0.0269 -2.30591,-1.91857 -1.95886,-3.76853 0.18863,-1.00549 0.14616,-1.82819 -0.0944,-1.82824 -0.24052,-6e-5 -1.80827,0.44399 -3.4839,0.98674 -1.6756,0.54278 -4.30326,1.24421 -5.83924,1.55877 -3.17817,0.65082 -2.79237,0.49737 -10.90408,4.33721 -3.34421,1.58305 -8.25679,3.44653 -10.91685,4.14106 -4.18229,1.09202 -5.45466,1.21572 -9.406351,0.91449 -5.228702,-0.39853 -9.676403,-1.75838 -11.210414,-3.42751 -1.201336,-1.30715 -4.885304,-3.43304 -5.949103,-3.43304 -1.25085,0 -3.912561,-1.57316 -3.912561,-2.31244 0,-1.24903 -2.462858,-1.48583 -3.709376,-0.35666 -2.084211,1.88801 -5.30976,1.80767 -13.300611,-0.33127 -3.274733,-0.87655 -4.367774,-1.42929 -5.639181,-2.85169 -0.867397,-0.9704 -1.741823,-1.76436 -1.94316,-1.76436 -0.201338,0 -1.072415,0.70634 -1.935732,1.56967 -1.344068,1.34406 -1.794565,1.51405 -3.134448,1.1828 -0.860629,-0.21276 -3.73546,-0.42675 -6.38851,-0.47554 -6.102278,-0.11227 -10.266211,-0.99311 -12.137691,-2.56787 -1.406233,-1.18326 -3.094143,-1.6475 -3.09604,-0.85152 -0.0039,1.60853 -11.417261,5.71231 -15.8870732,5.71231 -4.3363555,0 -7.81967195,-3.80018 -7.2140612,-7.87029 0.430553,-2.89363 1.6987493,-6.42261 2.6980364,-7.50778 2.5969401,-2.82011 4.4777022,-4.40063 5.0022196,-4.20359 0.3259736,0.12243 0.7132056,-0.0913 0.8605126,-0.47535 0.6141268,-1.60037 7.1709078,-2.33139 9.4636648,-1.05511 0.698171,0.38865 2.225735,1.19823 3.394581,1.79908 1.168843,0.60087 2.971081,1.76471 4.004963,2.58635 2.162196,1.71828 3.771194,1.95401 3.771194,0.55249 0,-0.51775 0.514107,-1.51364 1.142464,-2.21309 1.243433,-1.38409 1.933919,-2.45603 3.909382,-6.06917 3.105399,-5.67978 5.32579,-9.38127 6.193676,-10.32516 0.513564,-0.55852 1.99002,-2.61497 3.281017,-4.56985 1.290997,-1.95489 2.870422,-4.12555 3.50984,-4.82373 0.639418,-0.69816 1.647731,-2.1449 2.240693,-3.21495 0.592958,-1.07008 2.038075,-3.24075 3.211366,-4.82373 4.130607,-5.57299 8.004503,-11.44411 8.767214,-13.28727 0.423342,-1.02304 1.102989,-2.22435 3.303619,-5.83925 1.020057,-1.675602 2.007845,-3.669006 2.195087,-4.42975 0.187245,-0.76075 0.873453,-2.168618 1.524911,-3.128588 0.651456,-0.959971 1.480377,-2.850952 1.84205,-4.202187 0.361673,-1.351216 0.927989,-2.685275 1.258491,-2.964542 0.330496,-0.279267 1.253068,-2.175968 2.050159,-4.214911 0.797093,-2.038944 1.637082,-3.823242 1.86664,-3.965102 0.229565,-0.14182 0.417386,-0.69001 0.417386,-1.218069 0,-0.528059 0.660727,-1.942644 1.468286,-3.143538 1.345744,-2.001213 2.584009,-5.296992 2.590967,-6.896155 0.0016,-0.357854 -0.397029,-0.786695 -0.88575,-0.952984 C 76.937574,64.703912 74.062608,62.90497 72.088423,60.690698 66.830729,54.793642 66.047091,52.92784 67.0088,48.59646 c 0.360967,-1.625724 1.236691,-3.951323 1.946064,-5.167991 1.506348,-2.583641 7.612924,-10.397598 8.334544,-10.664869 0.271733,-0.100641 1.427233,-1.195363 2.567776,-2.432709 1.140543,-1.237344 2.713022,-2.62736 3.494389,-3.088928 0.781373,-0.461565 1.554646,-1.449192 1.718395,-2.194721 0.174849,-0.796054 1.363405,-2.222404 2.879771,-3.455913 2.295728,-1.867494 2.877678,-2.100403 5.248067,-2.100403 3.941956,0 7.481734,1.33468 10.039424,3.785387 1.82554,1.749171 4.99147,5.895613 6.54303,8.56944 0.82809,1.427101 3.46405,7.614486 3.46405,8.131202 0,0.557863 1.88855,4.680694 4.4551,9.725749 2.31921,4.558869 2.97006,5.689793 4.10408,7.131476 0.61497,0.7818 1.5758,2.353195 2.13521,3.491986 1.78505,3.633923 3.22488,6.133796 4.91925,8.540994 0.90762,1.28946 1.65023,2.486842 1.65023,2.660886 0,0.17406 1.21307,1.846553 2.69572,3.716712 1.48264,1.87016 3.08862,3.971531 3.56885,4.669698 0.48021,0.698167 1.55717,2.183375 2.39324,3.300442 0.83607,1.117086 2.19539,3.32823 3.02068,4.913692 1.66014,3.189172 2.28557,3.788851 3.19575,3.064104 0.33685,-0.268213 1.29795,-0.614916 2.13575,-0.77044 0.83781,-0.155445 2.323,-0.483631 3.30044,-0.729141 1.7852,-0.448435 5.37219,0.09327 6.32162,0.954481 0.2653,0.240675 1.06503,0.444752 1.77717,0.453483 0.71213,0.0096 2.43724,0.577879 3.83359,1.264762 3.94511,1.940666 3.72139,2.11778 4.82439,-3.819444 1.00033,-5.384619 5.681,-16.849432 9.63947,-23.610887 0.81749,-1.396334 1.7059,-3.018142 1.97429,-3.604003 0.26837,-0.585862 1.1923,-1.836365 2.05317,-2.778909 0.86089,-0.942526 1.56523,-1.844309 1.56523,-2.003958 0,-0.78518 5.15944,-3.963471 7.66103,-4.719288 3.60647,-1.089644 4.58119,-1.075961 9.15772,0.12858 8.22183,2.163953 8.82187,2.38012 8.98705,3.237784 0.21521,1.117507 -1.30769,1.684485 -2.50918,0.934139 -1.65536,-1.033779 -5.66431,-0.703368 -8.26892,0.681507 -1.31307,0.698168 -2.70511,1.269407 -3.09339,1.269407 -0.3883,0 -1.00455,0.422948 -1.3695,0.939915 -0.36491,0.516946 -1.34896,1.299708 -2.18677,1.739468 -0.83779,0.43978 -2.72823,1.958995 -4.20097,3.376074 -1.47274,1.41706 -2.90129,2.576464 -3.17456,2.576464 -1.62143,0 -8.61891,12.051941 -8.61891,14.844571 0,0.779671 -0.21794,1.814334 -0.4843,2.29925 -1.91023,3.477805 -2.85792,16.592811 -1.29286,17.891701 0.41889,0.34764 0.76162,0.91174 0.76162,1.25354 0,0.34181 0.34833,1.31968 0.77403,2.17305 0.48239,0.96693 0.80227,3.14878 0.84891,5.79032 0.0673,3.80397 -0.0896,4.57726 -1.52801,7.5392 -2.39406,4.92946 -3.63269,6.80811 -6.88939,10.44919 -2.76656,3.0931 -2.92001,3.39599 -2.38047,4.69853 0.46598,1.12498 0.38479,2.02231 -0.4229,4.67383 -1.37862,4.52583 -0.8806,12.73565 1.02643,16.92114 0.5484,1.20361 0.82832,1.33636 2.18826,1.03776 0.85768,-0.18827 2.35915,-0.88793 3.33658,-1.55472 0.97743,-0.66677 2.68308,-1.45788 3.79033,-1.758 1.10726,-0.30012 2.56613,-0.98063 3.24199,-1.51224 0.67585,-0.53162 1.60927,-0.96659 2.07431,-0.96659 0.46501,0 1.117,-0.27152 1.44888,-0.60338 0.37056,-0.37056 2.35264,-0.61547 5.13681,-0.63471 4.15535,-0.0287 4.64729,0.0745 5.89904,1.23809 1.87448,1.74243 2.30735,3.11642 2.32968,7.39495 l 0.0192,3.67695 1.69046,0.31712 c 2.45593,0.46073 6.69958,4.04202 7.89248,6.66056 1.61785,3.55141 1.35992,7.0895 -0.81891,11.23318 -3.77768,7.18434 -5.78312,9.51822 -10.53877,12.26477 -4.84075,2.79569 -13.03214,3.82942 -18.92174,2.38786 z m 11.22742,-1.54771 c 1.30195,-0.2553 3.71266,-5.97274 2.93452,-6.95973 -0.85707,-1.08706 -1.20912,-3.34706 -0.58178,-3.73477 0.3235,-0.19995 1.00771,0.17868 1.54957,0.85746 0.80631,1.01007 0.93613,1.83763 0.76824,4.89676 -0.1353,2.46654 -0.0173,3.67614 0.35639,3.66577 0.30714,-0.007 1.81346,-0.86537 3.34739,-1.90412 2.94273,-1.99275 3.37718,-2.86058 3.49799,-6.98743 0.0527,-1.79745 -0.22363,-2.33068 -2.22487,-4.29474 -1.25669,-1.23337 -2.28492,-2.52417 -2.28492,-2.86844 0,-1.05805 0.95976,-1.2903 2.08246,-0.50392 1.21693,0.85235 4.59086,5.66949 4.22629,6.03404 -0.13204,0.13204 0.10119,0.52344 0.51833,0.86965 0.64246,0.53318 0.9415,0.21414 1.9549,-2.08562 2.59059,-5.87891 2.71954,-9.84853 0.40012,-12.31743 -0.58186,-0.61937 -1.05792,-1.34122 -1.05792,-1.60411 0,-0.26292 -1.19291,-1.02526 -2.65087,-1.69413 -4.03768,-1.85233 -9.80507,-1.94772 -20.45224,-0.33826 -16.10626,2.43463 -17.58658,2.76902 -19.71877,4.45431 -2.65983,2.10231 -3.48016,1.18848 -1.15052,-1.28167 1.56677,-1.66125 2.17156,-1.92344 5.62012,-2.43635 2.12544,-0.31612 3.78291,-0.65625 3.68329,-0.7559 -0.0996,-0.0996 -1.63944,-0.31594 -3.42181,-0.48073 -3.75906,-0.34753 -6.51254,-2.13488 -8.06135,-5.23281 -1.48922,-2.97877 -1.56541,-4.60526 -0.49158,-10.49357 0.55868,-3.06346 1.20632,-6.71242 1.43918,-8.10878 0.78729,-4.72076 2.08499,-6.54413 5.5992,-7.86733 4.06383,-1.5301 9.44758,-8.45835 11.64206,-14.9819 1.21192,-3.60267 1.13321,-9.37749 -0.16332,-11.97626 -0.44871,-0.89949 -0.81732,-1.88593 -0.81912,-2.1921 -0.005,-0.83739 -4.04204,-5.380417 -4.78126,-5.380417 -0.3539,0 -1.07817,-0.480385 -1.60952,-1.067513 -1.25569,-1.387526 -3.40788,-2.485997 -4.8784,-2.48995 -0.64222,-0.0016 -1.85316,-0.372536 -2.69097,-0.824022 -3.32985,-1.79447 -11.90979,-0.466379 -11.90439,1.842678 0.002,0.916559 2.50163,3.755056 3.71736,4.221589 0.69737,0.267601 0.76052,0.534561 0.32077,1.356245 -0.30112,0.56267 -0.75241,1.02305 -1.00284,1.02305 -0.55749,0 -2.55552,-2.737614 -2.55552,-3.501464 0,-0.303607 -0.45697,-0.837402 -1.01551,-1.186217 -0.55854,-0.348814 -1.01553,-0.843288 -1.01553,-1.098835 0,-0.255547 -0.53024,-1.171685 -1.17832,-2.035854 -0.64808,-0.86415 -1.72136,-2.713659 -2.38507,-4.110013 -0.66372,-1.396334 -1.9614,-3.594294 -2.88376,-4.884367 -0.92235,-1.290055 -1.67702,-2.564065 -1.67702,-2.831108 0,-0.267062 -0.59641,-1.039478 -1.32538,-1.716517 -1.66093,-1.542626 -6.7988,-8.308418 -6.7988,-8.953023 0,-0.263435 -0.55701,-1.002286 -1.23781,-1.641863 -0.68079,-0.639579 -1.838,-2.430479 -2.57156,-3.979784 -0.73356,-1.549305 -2.00448,-3.791787 -2.82427,-4.983317 -0.81979,-1.191509 -1.49052,-2.382865 -1.49052,-2.64743 0,-0.264568 -0.33426,-0.758466 -0.74281,-1.097513 -0.86456,-0.71753 -7.47363,-14.034983 -8.44933,-17.025624 -0.36444,-1.117068 -0.84447,-2.248106 -1.06674,-2.513421 -0.22224,-0.265296 -0.4041,-0.875146 -0.4041,-1.355188 0,-1.094365 -1.56552,-4.120166 -2.41187,-4.661618 -0.34908,-0.223329 -0.63469,-0.656779 -0.63469,-0.963226 0,-0.59112 -3.25565,-4.789146 -4.5583,-5.87775 -2.743592,-2.292758 -8.386455,-3.617513 -11.07812,-2.600767 -1.259771,0.475863 -4.166254,3.166582 -4.166254,3.856967 0,0.161434 0.339139,0.547189 0.753634,0.857243 0.414501,0.310055 1.351273,2.734415 2.081712,5.387464 0.730444,2.653062 1.819383,5.850696 2.419872,7.105901 1.620544,3.387396 7.121992,11.74955 8.681536,13.195877 0.74769,0.693406 1.79694,1.968627 2.33167,2.833814 0.53471,0.865205 2.03176,2.118028 3.32677,2.78407 2.73625,1.407312 3.29789,2.379104 1.94618,3.367496 -0.83602,0.611308 -1.04629,0.594669 -1.57211,-0.124358 -0.54521,-0.745626 -0.81426,-0.663565 -2.64335,0.806346 -1.95849,1.573871 -2.15928,1.623306 -5.250264,1.292281 -3.0057,-0.32189 -3.292525,-0.260459 -4.427954,0.94815 -1.440199,1.533011 -5.970369,3.333737 -8.386858,3.333737 -1.945507,0 -3.322924,0.423257 -3.322924,1.021074 0,0.222559 -0.799724,1.819514 -1.777163,3.548773 -0.977439,1.72926 -1.777163,3.464909 -1.777163,3.85698 0,0.941297 1.23395,0.911668 2.031043,-0.04875 0.761135,-0.917098 2.110441,-0.986896 2.945013,-0.152376 1.047866,1.047865 0.678703,1.421743 -1.403867,1.421743 -1.493509,0 -2.15347,0.262129 -2.556667,1.015509 -0.29892,0.558534 -0.998146,1.015527 -1.55384,1.015527 -0.714714,0 -1.098831,0.442391 -1.312729,1.511884 -0.166309,0.831544 -0.617584,1.773494 -1.002827,2.093235 -1.27781,1.060473 -0.728164,1.462274 1.668602,1.219738 1.350868,-0.136639 2.660242,0.0019 3.046565,0.322582 1.128159,0.936288 0.764007,1.445366 -0.808868,1.130788 -0.868097,-0.173678 -2.414991,0.05738 -3.7188,0.555291 -1.770993,0.676346 -2.381568,1.238929 -2.953992,2.721834 -0.396869,1.028098 -0.798882,2.040632 -0.893367,2.250083 -0.09447,0.209451 0.504755,0.380825 1.331639,0.380825 1.497432,0 2.936067,1.061242 2.30038,1.696942 -0.183752,0.183657 -0.992408,0.334095 -1.797006,0.334095 -1.588631,0 -3.49435,1.700185 -4.837762,4.315962 -0.430277,0.837806 -1.207,2.06821 -1.726051,2.734232 -1.301844,1.67044 -1.205607,1.88639 0.840694,1.88639 2.134321,0 3.843643,1.37905 2.890606,2.33207 -0.476732,0.47675 -0.748344,0.47756 -1.222251,0.003 -1.221893,-1.2219 -4.709785,-0.21713 -5.259587,1.51514 -0.166672,0.52516 -0.856552,1.55207 -1.533046,2.28202 -1.732569,1.86948 -1.58311,2.70218 0.485004,2.70218 0.943241,0 1.999436,0.34273 2.347095,0.76166 0.542303,0.6534 0.367918,0.76161 -1.227456,0.76161 -1.022763,0 -2.735688,0.44697 -3.806512,0.99327 -1.899329,0.96896 -4.613488,3.69346 -4.613488,4.63107 0,0.63178 1.890312,0.59953 2.284923,-0.0389 0.551463,-0.89227 3.226266,-0.5796 3.772476,0.44099 0.679349,1.26937 0.206617,1.62989 -1.357478,1.03522 -1.398511,-0.53173 -5.177486,0.56276 -6.85337,1.98489 -1.018188,0.86398 -3.622766,5.14923 -3.316116,5.45589 0.11294,0.11304 0.917104,0.001 1.78704,-0.24829 1.130264,-0.32416 1.845274,-0.25957 2.505174,0.2263 1.069549,0.78748 0.710571,0.99013 -2.566893,1.4491 -1.776003,0.2487 -3.872167,1.50315 -3.872167,2.31729 0,0.17483 0.727535,0.59235 1.61674,0.928 1.990748,0.75142 1.534026,1.32747 -1.10497,1.39369 -1.094415,0.0274 -2.416093,0.43719 -2.940157,0.91145 -0.523612,0.47386 -1.219648,0.86156 -1.54674,0.86156 -0.327095,0 -0.594721,0.29885 -0.594721,0.66411 0,0.3653 0.955571,0.8794 2.123491,1.14249 3.026741,0.68179 3.299926,1.93796 0.324424,1.49175 -1.857546,-0.27856 -2.442945,-0.15065 -3.482843,0.76078 -1.210878,1.06135 -1.215147,1.08821 -0.13639,0.85827 1.273305,-0.27142 2.99762,1.29017 2.433143,2.20351 -0.259903,0.42054 -0.515432,0.42948 -0.912934,0.0321 -0.935524,-0.93552 -2.873062,-0.61483 -4.698742,0.77767 -2.359138,1.79941 -2.343483,2.95805 0.03392,2.51202 1.47535,-0.27677 1.992828,-0.11783 3.046563,0.93595 1.593167,1.59316 1.689179,2.68267 0.140843,1.59816 -1.880747,-1.31727 -6.487888,-0.95125 -6.487888,0.51551 0,0.37921 -0.456985,0.93403 -1.015522,1.23295 -0.558538,0.29892 -1.015522,0.96445 -1.015522,1.47897 0,0.51451 -0.359436,1.23379 -0.798753,1.5984 -0.439313,0.36459 -1.268457,1.58359 -1.842547,2.70888 -0.885768,1.73628 -0.995969,2.61174 -0.727912,5.78289 0.284971,3.37121 0.229499,3.72021 -0.56696,3.56682 -0.685395,-0.13203 -0.846803,-0.58835 -0.721695,-2.04043 0.145237,-1.68592 -0.105431,-2.12362 -2.54116,-4.43687 -7.234118,-6.87037 -14.784746,-7.66175 -21.2440699,-2.22658 -4.3288355,3.64247 -5.412952,12.43574 -1.7733419,14.3836 1.9527547,1.04509 7.6391338,0.39845 10.6327208,-1.20912 1.377133,-0.73953 3.384738,-1.48547 4.461353,-1.65763 1.154745,-0.18461 2.165463,-0.70163 2.464656,-1.26067 0.278949,-0.52122 0.847535,-0.94769 1.263521,-0.94769 0.415993,0 0.99348,-0.6237 1.283306,-1.38601 0.968762,-2.54803 2.494472,-2.64939 2.494472,-0.16561 0,2.01179 1.518482,2.83663 7.115727,3.86528 3.506373,0.64436 4.964302,0.72651 5.620521,0.31669 0.60021,-0.37483 1.43143,-0.39694 2.576546,-0.0685 3.086089,0.8851 4.798055,0.60509 6.349291,-1.03845 0.79075,-0.8378 1.596546,-1.52329 1.790653,-1.52329 0.194106,0 1.658479,1.14247 3.254159,2.53882 1.595679,1.39634 3.265541,2.54039 3.710812,2.54233 0.44527,0.002 2.469292,0.56685 4.497832,1.25531 3.707719,1.25837 5.373769,1.29022 8.371066,0.16006 2.241987,-0.8454 1.735622,-3.41628 -1.363147,-6.92089 -1.080046,-1.22151 -4.059774,-2.74627 -6.492933,-3.32253 -2.516078,-0.59591 -7.096233,0.24677 -8.393779,1.54433 -1.244794,1.24481 -2.664231,1.58001 -2.664231,0.62917 0,-0.77965 3.002644,-3.50414 3.861908,-3.50414 0.389364,0 0.707939,-0.22849 0.707939,-0.50776 0,-0.27929 -0.319067,-0.50777 -0.709042,-0.50777 -1.072991,0 -3.860805,-3.43056 -3.860805,-4.75094 0,-1.45244 1.447378,-5.82845 2.37528,-7.18144 0.383053,-0.55854 0.939601,-1.91509 1.236773,-3.01458 0.297171,-1.09948 1.319726,-3.21748 2.272335,-4.70664 0.952615,-1.48918 1.732023,-2.84155 1.732023,-3.00525 0,-0.1637 0.51411,-0.91652 1.142464,-1.67289 1.408614,-1.6956 2.678148,-3.42559 3.823326,-5.21004 0.480401,-0.7486 2.153516,-3.26199 3.718022,-5.58537 1.564512,-2.32338 3.685566,-5.74488 4.713458,-7.60336 1.02789,-1.85847 2.204128,-3.65727 2.613865,-3.99731 0.409733,-0.34004 0.75133,-1.1044 0.759098,-1.69856 0.0077,-0.59416 0.693245,-1.97785 1.523283,-3.07484 0.830036,-1.09702 1.509156,-2.265 1.509156,-2.59552 0,-1.03963 2.935097,-7.125452 3.771114,-7.819287 0.439304,-0.364589 0.798734,-0.999498 0.798734,-1.410914 0,-0.411415 0.408097,-1.354536 0.90688,-2.095806 0.498784,-0.741289 1.231528,-2.033263 1.628324,-2.871083 0.396787,-0.8378 0.969625,-1.866013 1.272964,-2.284914 0.98102,-1.354767 1.859813,-4.558179 2.203298,-8.031551 0.293389,-2.966807 0.473588,-3.412728 1.434394,-3.549618 1.565181,-0.22296 1.835636,1.175927 0.912532,4.71996 -0.639011,2.453353 -0.667462,3.283535 -0.155927,4.550215 1.177187,2.914972 2.882106,3.078326 5.371853,0.514721 1.564972,-1.611407 1.69167,-1.947883 1.231045,-3.269238 -0.397474,-1.140211 -0.347698,-1.610525 0.220403,-2.082008 0.975403,-0.809494 2.742353,0.704212 2.390883,2.048232 -0.20821,0.796214 0.53996,1.181511 5.00575,2.577864 2.88781,0.902954 5.70754,1.910249 6.26608,2.238453 0.55853,0.328204 2.15798,1.011017 3.55431,1.517371 1.39635,0.506354 2.82207,1.27593 3.16827,1.710164 0.3462,0.434234 0.77521,0.643742 0.95336,0.465592 1.27926,-1.279249 10.88663,7.347867 13.09756,11.761217 2.30457,4.60026 2.47794,5.72929 1.76964,11.52468 -0.6684,5.46918 -1.32537,6.94592 -2.47424,5.5616 -0.50529,-0.60881 -0.44756,-1.66268 0.29123,-5.31764 0.50678,-2.5071 0.76976,-4.71001 0.5844,-4.89536 -0.44748,-0.44748 -4.836,2.73664 -6.08771,4.417 -1.90171,2.55292 -0.96703,10.35814 1.39155,11.6204 0.64696,0.34625 1.31911,1.50672 1.70925,2.95107 0.35365,1.30922 0.84434,2.75798 1.09043,3.21942 0.24609,0.46145 0.60457,3.12058 0.79663,5.90919 0.44326,6.43577 -0.56193,11.0342 -3.26701,14.94559 -2.23133,3.22636 -6.16152,5.52943 -7.74665,4.5395 -1.22952,-0.76782 -1.97953,-0.75129 -1.96313,0.0434 0.007,0.34908 0.86404,1.02732 1.9041,1.50716 2.72659,1.25795 6.70312,4.99461 6.84718,6.4341 0.19309,1.92959 -1.08071,1.86426 -1.90038,-0.0975 -0.99348,-2.3777 -3.71192,-4.35375 -8.89505,-6.46583 l -4.31597,-1.75874 -7.61246,0.10689 c -4.18684,0.0589 -8.071218,0.32118 -8.631925,0.58303 -0.560705,0.26181 -2.618912,0.86063 -4.573791,1.33071 -3.782688,0.9096 -4.053477,1.00156 -8.378055,2.84549 -3.262809,1.39118 -7.580315,4.00729 -8.543968,5.17702 -0.868707,1.05449 -0.589396,2.89968 0.546735,3.61188 0.954129,0.5981 0.99671,0.57839 4.145234,-1.92046 2.315201,-1.83746 3.180602,-1.22016 0.932375,0.66507 -2.363489,1.98189 -2.124737,3.09035 0.992992,4.61013 1.814109,0.88432 2.665327,1.08453 2.806774,0.66017 0.111653,-0.33497 0.675622,-1.20986 1.253256,-1.94421 0.954966,-1.21404 1.122645,-1.26274 1.848517,-0.53686 0.623517,0.62351 0.664096,0.93248 0.185347,1.41122 -0.337118,0.33713 -0.612939,1.23037 -0.612939,1.985 0,1.08244 0.337529,1.48973 1.59905,1.92949 0.879484,0.3066 1.99113,0.55744 2.470328,0.55744 0.479204,0 1.416201,0.4235 2.082216,0.94109 1.348068,1.04768 8.784784,1.98039 9.288724,1.16499 0.24209,-0.39169 2.67875,-1.08633 4.61623,-1.31595 0.27927,-0.033 1.42172,-0.47503 2.53879,-0.98206 1.11708,-0.50704 3.46361,-1.47071 5.21451,-2.14153 1.75091,-0.6708 4.03583,-1.76568 5.07761,-2.43307 1.04178,-0.66741 3.2651,-1.60554 4.94071,-2.08481 1.67561,-0.47925 3.38931,-0.99793 3.80821,-1.15259 0.41891,-0.15467 1.44713,-0.37052 2.28491,-0.47965 2.39486,-0.31196 5.59423,-1.98368 6.53018,-3.41212 1.58032,-2.41188 2.34135,-9.01382 2.24139,-19.44407 -0.0714,-7.45331 -0.24899,-9.81959 -0.75129,-10.01235 -0.36175,-0.13874 -0.65773,-0.58935 -0.65773,-1.00118 0,-1.00876 2.10935,-2.45444 2.7079,-1.8559 0.849,0.849 0.87675,19.47316 0.0375,25.10318 -1.97243,13.23027 -1.9563,12.97599 -0.91175,14.36368 0.52913,0.70293 2.18743,1.70489 3.69879,2.23483 1.50681,0.52833 3.10626,1.283 3.55433,1.67705 0.44807,0.39402 2.18563,1.4279 3.86124,2.29749 1.67561,0.86956 3.61779,2.00821 4.31596,2.53032 4.14708,3.10121 11.59458,7.29399 15.99446,9.00447 3.45795,1.34432 9.54942,1.76694 13.70955,0.9512 z M 33.810939,156.63684 c -0.4541,-0.73474 3.257936,-4.11258 4.519477,-4.11258 1.646548,0 3.040995,1.20926 2.629878,2.28062 -0.322055,0.83925 -0.412882,0.84453 -1.264946,0.0735 -1.276318,-1.15506 -1.8169,-1.0548 -3.826409,0.70957 -0.964883,0.84717 -1.890983,1.31921 -2.058,1.04898 z m 42.652639,9.02319 c 0.820236,-0.87411 2.405309,-2.03305 3.522382,-2.57541 1.117073,-0.54237 3.287751,-1.6513 4.823726,-2.4643 1.535978,-0.81299 3.16338,-1.482 3.616456,-1.48668 0.45307,-0.003 2.573683,-0.57972 4.712472,-1.27791 2.138792,-0.69817 4.538567,-1.2694 5.332831,-1.2694 1.192445,0 1.49626,-0.26064 1.743255,-1.49567 0.16453,-0.8226 0.81673,-1.77266 1.44934,-2.11123 0.63261,-0.33855 1.45685,-0.92222 1.83164,-1.29703 0.37481,-0.37478 0.98909,-0.68142 1.36512,-0.68142 0.376,0 1.78775,-0.54392 3.13723,-1.20867 4.27938,-2.10808 7.73042,-2.41921 10.57776,-0.95366 0.8378,0.43123 1.92947,0.9858 2.42592,1.23239 1.62903,0.80915 3.36916,-1.09508 6.11029,-6.68648 2.28146,-4.65374 2.61392,-5.72738 2.61527,-8.44583 0.001,-2.82642 -0.15019,-3.26954 -1.63981,-4.79317 -0.90277,-0.92337 -1.64139,-1.9924 -1.64139,-2.37562 0,-0.97561 -1.58334,-5.84223 -2.13217,-6.55349 -0.24966,-0.32356 -0.29402,-1.79372 -0.0986,-3.26701 0.33141,-2.49834 0.62366,-2.94491 4.33961,-6.63102 2.83443,-2.81165 3.98426,-4.31466 3.98426,-5.20799 0,-0.69067 -0.22236,-1.39319 -0.49416,-1.56117 -0.27181,-0.16793 -0.8664,-1.08982 -1.32133,-2.04851 -1.36989,-2.886836 -4.68276,-6.231393 -8.0008,-8.077334 -3.50229,-1.948458 -12.8275,-6.012412 -17.09503,-7.450045 -2.84943,-0.959933 -6.091102,-1.270999 -6.095645,-0.58496 -0.0078,1.110715 -2.492919,3.272461 -4.205896,3.657951 -1.665359,0.374779 -2.125182,0.263165 -3.42634,-0.831679 -1.401867,-1.179592 -1.526649,-1.201893 -1.857167,-0.331735 -0.194872,0.51307 -1.36394,2.303797 -2.597931,3.979417 -1.233987,1.675602 -2.783163,4.189027 -3.442618,5.585357 -0.659456,1.39635 -1.414566,2.881548 -1.678024,3.300468 -0.263457,0.41889 -0.955788,1.78983 -1.538514,3.04656 -0.582728,1.2567 -1.276481,2.62764 -1.541679,3.04656 -0.265197,0.4189 -0.954535,1.78986 -1.531852,3.04656 -1.10162,2.39797 -1.393318,2.90327 -3.810583,6.60089 -1.453348,2.22314 -2.025127,3.17579 -4.013276,6.68653 -0.526851,0.93035 -2.023173,3.06248 -3.325147,4.73808 -2.200499,2.83199 -3.59743,4.78229 -4.867005,6.79501 -0.284975,0.45176 -1.180989,1.84962 -1.991144,3.10633 -2.878099,4.46451 -6.136735,13.89916 -5.666457,16.40595 0.366573,1.954 1.55912,2.64713 8.160772,4.7432 3.974564,1.26194 4.944945,1.81593 7.616411,4.34816 1.683843,1.59605 3.532889,2.90989 4.108995,2.91962 0.576104,0.0103 1.718568,-0.6975 2.538804,-1.57161 z m 94.919332,-2.49238 c 2.94552,-0.72965 13.65173,-1.98455 17.64469,-2.06818 l 3.42739,-0.0717 v -4.47564 c 0,-3.0229 -0.20603,-4.60896 -0.6347,-4.88639 -1.93854,-1.25466 -12.99158,0.3401 -14.78461,2.13314 -0.41608,0.41608 -1.08758,0.7565 -1.49224,0.7565 -0.40466,0 -1.03498,0.36057 -1.40072,0.80126 -1.12228,1.35225 -5.41725,3.26082 -7.33801,3.26082 -1.00058,0 -2.50009,0.35208 -3.33223,0.7824 -1.40563,0.72687 -2.50302,0.64875 -2.49546,-0.17772 10e-4,-0.19295 0.71617,-0.75668 1.58756,-1.2527 1.75916,-1.00136 1.7669,-1.30752 0.17622,-6.96843 -1.19219,-4.24271 -1.46757,-11.32604 -0.51216,-13.17359 1.11679,-2.15964 1.00849,-3.58251 -0.27269,-3.58251 -2.39548,0 -3.39959,1.50401 -4.74586,7.10864 -0.8174,3.40291 -1.79832,12.91496 -1.51473,14.68845 0.17615,1.10155 0.81131,2.46415 1.41147,3.02797 1.19915,1.12654 6.8993,3.08486 9.00936,3.09523 0.7338,0.003 1.61862,0.34928 1.96628,0.7682 0.73841,0.88973 0.67316,0.8851 3.30044,0.23428 z m -63.82493,-7.68149 c 1.87076,0.003 6.39689,0.15949 10.05809,0.34524 l 6.65668,0.33782 2.0432,-1.94942 c 1.12377,-1.07219 2.19446,-2.52067 2.37933,-3.21882 0.18487,-0.69817 0.6393,-2.41186 1.00985,-3.80822 0.65041,-2.45089 1.02269,-6.85476 0.57946,-6.85476 -0.11893,0 -1.11624,1.9027 -2.21621,4.22826 -1.26179,2.6676 -2.61407,4.70886 -3.66375,5.53035 -1.81828,1.42302 -1.80827,2.82045 0.0237,3.29951 0.80419,0.21029 0.89917,0.4177 0.44303,0.96732 -0.84842,1.02227 -1.07123,0.93328 -4.286,-1.71225 l -2.93085,-2.41187 -3.69992,0.0782 c -2.45853,0.0519 -4.0881,0.35012 -4.85687,0.88857 -0.63634,0.44572 -1.42835,0.81039 -1.76006,0.81039 -0.73042,0 -4.75632,2.58342 -4.75632,3.05212 0,0.59178 0.63663,0.99024 1.11235,0.69624 0.25462,-0.15737 1.99355,-0.28277 3.86432,-0.2787 z M 171.2,96.543633 c 0.0389,-0.349102 0.0222,-1.463022 -0.0375,-2.475402 -0.14258,-2.4219 0.77456,-7.286156 1.73815,-9.217708 0.42193,-0.845764 0.76714,-2.152667 0.76714,-2.904205 0,-5.827969 6.84029,-15.526292 14.85199,-21.05755 1.60581,-1.108624 2.91964,-2.178558 2.91964,-2.377644 0,-0.199068 0.5141,-0.521572 1.14246,-0.716668 0.62834,-0.195076 1.77737,-0.801933 2.55337,-1.348567 0.776,-0.546617 2.21824,-1.216765 3.20496,-1.489218 2.98378,-0.82385 1.79525,-1.684544 -2.55318,-1.848934 -3.51527,-0.132803 -4.29141,0.01728 -7.06789,1.363842 -1.71545,0.832218 -3.71246,2.05804 -4.43787,2.724042 -1.89776,1.742406 -6.74387,9.291938 -8.06473,12.563612 -0.62012,1.535987 -1.77766,4.277895 -2.57232,6.09313 -2.97602,6.798051 -3.34183,8.055616 -4.28345,14.72507 -0.6057,4.290062 -0.59303,4.922039 0.11455,5.712304 0.93403,1.043245 1.62504,1.144971 1.72469,0.253896 z M 90.913123,63.996073 c 0.983113,-0.41464 2.218677,-1.230351 2.745704,-1.81272 1.431518,-1.581797 0.431418,-4.289334 -2.742656,-7.425059 -1.453456,-1.435907 -2.918863,-3.498091 -3.412127,-4.801714 -0.475513,-1.25672 -1.37586,-3.262482 -2.000772,-4.457273 -1.796512,-3.434836 -2.940543,-13.822692 -1.612693,-14.643348 0.746953,-0.461643 0.427773,-1.209816 -0.516123,-1.209816 -1.480057,0 -11.766549,11.312891 -11.766549,12.940628 0,0.354515 -0.319784,0.90996 -0.710626,1.234326 -0.39084,0.324384 -1.111301,2.070013 -1.601021,3.879164 -0.759899,2.807311 -0.79682,3.604389 -0.251892,5.438603 2.118348,7.130285 9.381867,12.24009 16.780841,11.805108 1.815246,-0.106703 4.10481,-0.53326 5.087914,-0.947899 z m -14.633817,-5.50913 c -0.335121,-0.335113 -0.609312,-0.86511 -0.609312,-1.177748 0,-0.312661 -0.739894,-0.895317 -1.644213,-1.294796 -0.904316,-0.399478 -1.884329,-1.216074 -2.177806,-1.814639 -0.293481,-0.598566 -0.830503,-1.446058 -1.193386,-1.883305 -0.411919,-0.496336 -0.535696,-1.360005 -0.329464,-2.298962 0.339313,-1.544892 2.371928,-4.123005 3.250625,-4.123005 0.983902,0 3.617526,2.654589 3.617526,3.646321 0,0.559474 0.456985,1.598203 1.01552,2.30825 0.558538,0.710065 1.015522,1.703716 1.015522,2.208112 0,0.504396 0.228492,1.058305 0.507761,1.230888 0.701863,0.433773 0.637538,2.459801 -0.101561,3.198884 -0.335124,0.335132 -1.08915,0.609313 -1.675612,0.609313 -0.586464,0 -1.340489,-0.274181 -1.67561,-0.609313 z m 26.522844,2.145166 c 0.71634,-0.272359 1.30245,-0.841602 1.30245,-1.265011 0,-0.799227 -2.50844,-4.324816 -5.22624,-7.345456 -1.991816,-2.213753 -4.627119,-6.11159 -6.514603,-9.635646 -0.809169,-1.51077 -1.665411,-2.995957 -1.902757,-3.300441 -0.671838,-0.861847 -2.604749,-6.966933 -2.604749,-8.227075 0,-1.589332 -0.511364,-2.73562 -1.220373,-2.73562 -0.822149,0 -1.817305,6.223967 -1.50194,9.393584 0.138924,1.396335 0.605175,3.37498 1.036102,4.396975 0.640312,1.518581 1.121185,1.920228 2.631201,2.19771 1.810472,0.332714 4.621449,2.461319 4.659746,3.528585 0.01072,0.296827 1.029942,1.78827 2.265091,3.314317 2.077935,2.567328 2.185522,2.841145 1.440006,3.664935 -0.597151,0.659843 -1.043409,0.763091 -1.723952,0.398885 -2.258042,-1.208474 -2.745062,0.155447 -0.73111,2.047369 0.698171,0.655908 1.269403,1.442526 1.269403,1.748065 0,0.839336 2.612048,2.285222 4.155975,2.300517 0.7498,0.0077 1.94939,-0.209336 2.66575,-0.481693 z"
         style="fill:#000000;stroke-width:0.99999994" />
    </g>
  </g>
</svg>
